<svg xmlns="http://www.w3.org/2000/svg" width="128" height="128" viewBox="6 26 116 92" preserveAspectRatio="xMidYMid slice"><defs><linearGradient id="sky" x1="0" y1="0" x2="0" y2="1"><stop offset="0" stop-color="#ccd8e8"/><stop offset="1" stop-color="#eef2f8"/></linearGradient></defs><rect width="128" height="128" fill="url(#sky)"/><circle cx="98" cy="26" r="13" fill="#ffffff" opacity="0.55"/><rect x="52" y="62" width="26" height="50" rx="2" fill="#8b9bb2"/><rect x="57" y="70" width="6" height="7" rx="1" fill="#f0f6fd" opacity="0.85"/><rect x="67" y="70" width="6" height="7" rx="1" fill="#f0f6fd" opacity="0.85"/><rect x="57" y="82" width="6" height="7" rx="1" fill="#f0f6fd" opacity="0.85"/><rect x="67" y="82" width="6" height="7" rx="1" fill="#f0f6fd" opacity="0.85"/><rect x="57" y="94" width="6" height="7" rx="1" fill="#f0f6fd" opacity="0.85"/><rect x="67" y="94" width="6" height="7" rx="1" fill="#f0f6fd" opacity="0.85"/><rect x="14" y="36" width="34" height="76" rx="2" fill="#37485f"/><rect x="23" y="44" width="6" height="7" rx="1" fill="#f0f6fd" opacity="0.85"/><rect x="33" y="44" width="6" height="7" rx="1" fill="#f0f6fd" opacity="0.85"/><rect x="23" y="56" width="6" height="7" rx="1" fill="#f0f6fd" opacity="0.85"/><rect x="33" y="56" width="6" height="7" rx="1" fill="#f0f6fd" opacity="0.85"/><rect x="23" y="68" width="6" height="7" rx="1" fill="#f0f6fd" opacity="0.85"/><rect x="33" y="68" width="6" height="7" rx="1" fill="#f0f6fd" opacity="0.85"/><rect x="23" y="80" width="6" height="7" rx="1" fill="#f0f6fd" opacity="0.85"/><rect x="33" y="80" width="6" height="7" rx="1" fill="#f0f6fd" opacity="0.85"/><rect x="23" y="92" width="6" height="7" rx="1" fill="#f0f6fd" opacity="0.85"/><rect x="33" y="92" width="6" height="7" rx="1" fill="#f0f6fd" opacity="0.85"/><rect x="82" y="48" width="30" height="64" rx="2" fill="#37485f"/><rect x="89" y="56" width="6" height="7" rx="1" fill="#f0f6fd" opacity="0.85"/><rect x="99" y="56" width="6" height="7" rx="1" fill="#f0f6fd" opacity="0.85"/><rect x="89" y="68" width="6" height="7" rx="1" fill="#f0f6fd" opacity="0.85"/><rect x="99" y="68" width="6" height="7" rx="1" fill="#f0f6fd" opacity="0.85"/><rect x="89" y="80" width="6" height="7" rx="1" fill="#f0f6fd" opacity="0.85"/><rect x="99" y="80" width="6" height="7" rx="1" fill="#f0f6fd" opacity="0.85"/><rect x="89" y="92" width="6" height="7" rx="1" fill="#f0f6fd" opacity="0.85"/><rect x="99" y="92" width="6" height="7" rx="1" fill="#f0f6fd" opacity="0.85"/><rect y="110" width="128" height="18" fill="#37485f" opacity="0.35"/></svg>